<svg width="27" height="27" viewBox="0 0 27 27" fill="none" xmlns="http://www.w3.org/2000/svg">
<path d="M13.4462 17.5113C14.4754 17.5159 15.4643 17.1115 16.1953 16.387C16.9263 15.6625 17.3396 14.6773 17.3442 13.6481C17.3488 12.619 16.9444 11.6301 16.2199 10.8991C15.4954 10.168 14.5102 9.75477 13.481 9.75015C12.4518 9.74553 11.4629 10.15 10.7319 10.8744C10.0009 11.5989 9.58763 12.5841 9.58302 13.6133C9.5784 14.6425 9.98282 15.6314 10.7073 16.3624C11.4318 17.0934 12.417 17.5067 13.4462 17.5113ZM14.1539 3.93218C14.1547 3.76065 14.0873 3.59583 13.9665 3.474C13.8458 3.35216 13.6816 3.28328 13.51 3.28251C13.3385 3.28174 13.1737 3.34915 13.0518 3.46989C12.93 3.59064 12.8611 3.75484 12.8604 3.92637L12.8515 5.89254C11.022 6.03728 9.303 6.82553 7.9995 8.11738C6.696 9.40924 5.89235 11.1211 5.7312 12.9493L3.76504 12.9404C3.59351 12.9397 3.4287 13.0071 3.30686 13.1278C3.18502 13.2486 3.11615 13.4128 3.11538 13.5843C3.11461 13.7558 3.18201 13.9207 3.30276 14.0425C3.4235 14.1643 3.58771 14.2332 3.75924 14.234L5.7254 14.2428C5.87014 16.0723 6.65839 17.7913 7.95025 19.0948C9.2421 20.3983 10.954 21.202 12.7821 21.3631L12.7733 23.3293C12.7725 23.5008 12.8399 23.6656 12.9607 23.7875C13.0814 23.9093 13.2456 23.9782 13.4172 23.979C13.5887 23.9797 13.7535 23.9123 13.8754 23.7916C13.9972 23.6708 14.0661 23.5066 14.0668 23.3351L14.0757 21.3689C15.9051 21.2239 17.624 20.4356 18.9274 19.1438C20.2309 17.852 21.0346 16.1402 21.196 14.3122L23.1622 14.321C23.3337 14.3218 23.4985 14.2544 23.6203 14.1336C23.7422 14.0129 23.8111 13.8487 23.8118 13.6772C23.8126 13.5056 23.7452 13.3408 23.6244 13.219C23.5037 13.0971 23.3395 13.0283 23.168 13.0275L21.2018 13.0187C21.0571 11.1892 20.2688 9.47013 18.977 8.16663C17.6851 6.86313 15.9732 6.05949 14.1451 5.89834L14.1539 3.93218ZM13.4346 20.0984C11.7193 20.0907 10.0772 19.4019 8.86977 18.1835C7.66229 16.9652 6.98826 15.317 6.99596 13.6017C7.00366 11.8864 7.69245 10.2444 8.91081 9.03691C10.1292 7.82943 11.7773 7.1554 13.4926 7.1631C15.2079 7.17079 16.85 7.85958 18.0574 9.07794C19.2649 10.2963 19.9389 11.9444 19.9312 13.6598C19.9235 15.3751 19.2348 17.0171 18.0164 18.2246C16.798 19.432 15.1499 20.1061 13.4346 20.0984Z" fill="#FF5733"/>
</svg>
