<svg width="22" height="21" viewBox="0 0 22 21" fill="none" xmlns="http://www.w3.org/2000/svg">
<g clip-path="url(#clip0_17_48)">
<path d="M11.1354 19.0688C7.32556 19.0517 4.2466 16.8112 4.2637 13.0014L4.26404 12.9255C4.27223 11.099 5.30412 9.6428 6.8701 8.70122C8.36776 7.80073 9.25917 6.13346 9.04532 4.39914L8.62576 1.81015L10.2215 2.50289C13.0957 3.74982 15.4851 5.89979 17.0274 8.62693C17.7127 9.83892 18.0698 11.2088 18.0634 12.6011L18.0613 13.0633C18.0553 14.4103 17.6638 15.5581 16.9922 16.4778" stroke="white" stroke-width="1.72472" stroke-linecap="round" stroke-linejoin="round"/>
<path d="M11.1354 19.0688C9.70653 19.0624 8.55394 17.8215 8.56077 16.2977C8.56619 15.0904 9.44668 14.1276 10.2216 13.2455L11.1664 12.17L12.1015 13.2539C12.8685 14.1438 13.7403 15.1136 13.7349 16.3209C13.728 17.8447 12.5644 19.0752 11.1354 19.0688Z" stroke="white" stroke-width="1.72472" stroke-linecap="round" stroke-linejoin="round"/>
</g>
<defs>
<clipPath id="clip0_17_48">
<rect width="20.6967" height="20.6967" fill="white" transform="translate(0.872314 0.0506287) rotate(0.25706)"/>
</clipPath>
</defs>
</svg>
