<svg width="22" height="22" viewBox="0 0 22 22" fill="none" xmlns="http://www.w3.org/2000/svg">
<path d="M17.8477 17.8126L17.9343 17.9986L18.1394 17.9995L19.3463 18.0049L19.3434 18.6517L1.88075 18.5733L1.88366 17.9266L3.09052 17.932L3.29562 17.9329L3.38388 17.7478L9.80516 4.27757C9.88502 4.11568 10.0085 3.97926 10.1616 3.88369C10.3153 3.7878 10.4928 3.73685 10.6739 3.73661C10.855 3.73636 11.0326 3.78682 11.1865 3.88229C11.3395 3.97713 11.463 4.11263 11.5433 4.27361L17.8477 17.8126ZM10.9612 4.55696L10.6712 3.93414L10.376 4.55456L7.14726 11.3416L7.02755 11.5932L7.25873 11.7488L8.51937 12.5972L8.69821 12.7175L8.8781 12.5988L10.6443 11.4327L12.3999 12.6146L12.5788 12.735L12.7587 12.6162L14.0217 11.7823L14.2544 11.6287L14.1367 11.3759L10.9612 4.55696ZM7.05837 12.3933L6.74702 12.1837L6.58575 12.5226L4.22866 17.4761L4.00975 17.9361L4.51922 17.9384L16.7088 17.9931L17.2185 17.9954L17.0034 17.5333L14.6896 12.5615L14.5313 12.2214L14.2182 12.428L12.5753 13.5125L10.8196 12.3306L10.6408 12.2102L10.4609 12.329L8.69471 13.4951L7.05837 12.3933Z" fill="#6A778B" stroke="#6A778B" stroke-width="0.64677"/>
</svg>
