<svg width="22" height="21" viewBox="0 0 22 21" fill="none" xmlns="http://www.w3.org/2000/svg">
<path d="M6.29755 16.4469L6.29729 16.4469C6.28311 16.402 6.25462 16.363 6.21615 16.3358C6.17769 16.3086 6.13138 16.2947 6.08431 16.2964C6.03723 16.298 5.99198 16.315 5.95547 16.3447L5.68302 16.0105L5.95547 16.3447C5.91896 16.3745 5.8932 16.4154 5.88214 16.4612C5.67456 17.3232 5.26986 17.8335 4.78512 18.1321L4.78502 18.1321C4.29171 18.4358 3.69148 18.538 3.0645 18.5352C3.00733 18.535 2.95239 18.5574 2.91178 18.5977C2.87116 18.6379 2.8482 18.6927 2.84795 18.7498C2.84769 18.807 2.87016 18.862 2.91041 18.9026C2.95066 18.9432 3.00539 18.9661 3.06257 18.9664C3.73014 18.9694 4.42245 18.8618 5.01075 18.4996L6.29755 16.4469ZM6.29755 16.4469C6.68541 17.6722 7.664 18.3195 8.67462 18.3325C9.68093 18.3455 10.6676 17.7274 11.0618 16.5628L10.6533 16.4246M6.29755 16.4469L6.72988 16.3813C7.42914 18.4228 9.99171 18.3793 10.6533 16.4246M10.6533 16.4246C10.697 16.2963 10.7799 16.185 10.8903 16.1064C11.0007 16.0277 11.1329 15.9858 11.2684 15.9864C11.404 15.987 11.5358 16.0301 11.6455 16.1098C11.7552 16.1894 11.8371 16.3014 11.8796 16.4301M10.6533 16.4246L11.0615 16.5636C11.076 16.5209 11.1037 16.4838 11.1405 16.4576C11.1773 16.4314 11.2213 16.4174 11.2665 16.4176C11.3117 16.4178 11.3556 16.4322 11.3922 16.4587C11.4288 16.4852 11.456 16.5226 11.4702 16.5655L11.8796 16.4301M11.8796 16.4301L11.4699 16.5646C11.8536 17.7331 12.8347 18.3601 13.8412 18.356C14.852 18.3519 15.8365 17.713 16.2352 16.491L15.8253 16.3572M11.8796 16.4301C12.5304 18.4121 15.1397 18.4583 15.8253 16.3572M15.8253 16.3572C15.8681 16.2266 15.9513 16.1131 16.063 16.033C16.1747 15.9529 16.309 15.9105 16.4464 15.9119C16.5838 15.9133 16.7172 15.9584 16.8272 16.0407C16.9373 16.123 17.0182 16.2382 17.0584 16.3696C17.3984 17.481 18.431 18.173 19.4511 18.1776C19.6227 18.1783 19.7869 18.2472 19.9076 18.369M15.8253 16.3572L16.235 16.4915C16.2493 16.448 16.277 16.4101 16.3143 16.3834C16.3515 16.3568 16.3962 16.3426 16.442 16.3431C16.4878 16.3435 16.5323 16.3586 16.569 16.386C16.6057 16.4134 16.6327 16.4518 16.646 16.4957L16.6461 16.4958C17.0431 17.7937 18.2465 18.6033 19.4492 18.6087C19.5064 18.609 19.5611 18.6319 19.6013 18.6726L19.9076 18.369M19.9076 18.369L19.6014 18.6726C19.6416 18.7132 19.6641 18.7681 19.6638 18.8253C19.6636 18.8825 19.6406 18.9372 19.6 18.9774C19.5594 19.0177 19.5044 19.0402 19.4473 19.0399C18.434 19.0354 17.4221 18.537 16.775 17.6829L16.4376 17.2375L16.0923 17.6768C14.9342 19.1503 12.7374 19.1528 11.5975 17.7136L11.2626 17.2907L10.9239 17.7105C9.79149 19.114 7.65014 19.1173 6.48959 17.7091L6.12217 17.2633L5.7993 17.7424C5.59335 18.0479 5.32459 18.3061 5.01096 18.4995L19.9076 18.369ZM9.40569 5.04172L9.4057 5.04171C10.126 3.80691 11.3073 2.90882 12.6897 2.545C14.0722 2.18118 15.5425 2.38143 16.7773 3.10171C18.0121 3.82198 18.9102 5.00328 19.274 6.38572C19.6378 7.76817 19.4376 9.23852 18.7173 10.4733L18.5 10.8457L18.4999 10.8461C18.4856 10.8705 18.4667 10.892 18.4441 10.9091C18.4216 10.9263 18.3959 10.9388 18.3685 10.9461L18.3685 10.9461C18.3411 10.9533 18.3125 10.955 18.2845 10.9512C18.2564 10.9474 18.2293 10.9381 18.2049 10.9238L18.2048 10.9238L16.3282 9.82885L16.54 9.4529L17.8595 10.2228L18.2502 10.4508L18.4592 10.0496C18.9346 9.13712 19.1145 8.09939 18.9741 7.08011C18.8337 6.06082 18.3798 5.11042 17.6753 4.36049L16.8062 3.4353L16.932 4.69844C16.9791 5.17155 16.9738 5.64841 16.9161 6.12034C16.8268 6.80932 16.6058 7.49117 16.2112 8.26256L15.9511 8.11081L15.9477 8.85773L15.9477 8.8586L15.9444 9.60493L14.2844 8.63641L13.9103 8.41815L13.6937 8.7932L11.6313 12.3645L11.3056 12.9285L11.952 13.0081C13.259 13.1691 14.4435 13.7771 15.3949 14.6719C15.2659 14.7434 15.1445 14.8279 15.0325 14.9244C14.0059 13.9902 12.6966 13.4034 11.2801 13.397C9.86339 13.3906 8.54889 13.9658 7.51337 14.8907C7.40241 14.7934 7.2819 14.7078 7.15383 14.6353C8.10155 13.7598 9.27433 13.1663 10.5635 13.0083L10.7769 12.9822L10.8844 12.796L13.3232 8.57266L13.5379 8.20089L13.167 7.98459L9.26641 5.70941L9.2661 5.70923C9.24162 5.69497 9.22018 5.67603 9.20302 5.65349L8.85993 5.91464L9.20302 5.65349C9.18586 5.63095 9.17332 5.60524 9.1661 5.57784C9.15888 5.55045 9.15713 5.5219 9.16095 5.49382C9.16478 5.46575 9.17409 5.43871 9.18838 5.41424L9.18842 5.41416L9.40569 5.04172ZM9.90266 5.05832L9.65645 5.43766L10.0471 5.66552L11.7381 6.6519L12.0911 6.85779L12.3156 6.51636C12.7642 5.83416 13.2091 5.28671 13.7539 4.79499C14.2185 4.3836 14.7236 4.02036 15.2614 3.71082L16.2238 3.15695L15.1398 2.91619C14.1526 2.69692 13.1219 2.78458 12.1859 3.16744C11.2499 3.55029 10.4532 4.21005 9.90266 5.05832ZM15.0444 8.58033L15.423 8.80116L15.6376 8.419C16.1391 7.52597 16.3945 6.79046 16.489 6.06372L16.4891 6.06309C16.5645 5.47674 16.537 4.88762 16.4409 4.21365L16.3523 3.59284L15.8043 3.89776C15.0781 4.30191 14.5196 4.68492 14.0436 5.11443C13.5492 5.56023 13.1382 6.05886 12.7156 6.69295L12.4616 7.0739L12.8571 7.30456L15.0444 8.58033Z" fill="#6A778B" stroke="#6A778B" stroke-width="0.862361"/>
</svg>
