<svg width="21" height="22" viewBox="0 0 21 22" fill="none" xmlns="http://www.w3.org/2000/svg">
<g clip-path="url(#clip0_17_54)">
<path d="M0.187699 4.97591C0.252253 4.81704 0.377258 4.6903 0.53523 4.62358C0.693201 4.55685 0.871206 4.55559 1.03011 4.62008L3.29875 5.53963C3.76045 5.72668 4.27639 5.72899 4.73974 5.54609L6.05374 5.0268C6.82612 4.72185 7.68621 4.72571 8.45582 5.03758L9.76639 5.56864C10.2281 5.75569 10.744 5.75801 11.2074 5.57511L12.5214 5.05582C13.2938 4.75087 14.1538 4.75473 14.9235 5.0666L16.234 5.59766C16.6957 5.78471 17.2117 5.78703 17.675 5.60413L19.9518 4.70497C20.0312 4.67165 20.1164 4.6545 20.2025 4.65453C20.2885 4.65456 20.3737 4.67177 20.4531 4.70515C20.5324 4.73852 20.6043 4.7874 20.6645 4.84891C20.7247 4.91041 20.772 4.98332 20.8036 5.06335C20.8353 5.14338 20.8507 5.22892 20.8489 5.31497C20.847 5.40102 20.8281 5.48584 20.7931 5.56446C20.758 5.64308 20.7077 5.71392 20.6449 5.77283C20.5822 5.83174 20.5083 5.87753 20.4276 5.90753L18.1495 6.80667C17.3772 7.11162 16.5171 7.10776 15.7475 6.7959L14.4382 6.26484C13.9765 6.07779 13.4605 6.07547 12.9972 6.25837L11.6819 6.77765C10.9095 7.0826 10.0494 7.07874 9.27982 6.76688L7.97053 6.23582C7.50884 6.04877 6.9929 6.04646 6.52954 6.22936L5.21426 6.74864C4.44188 7.05359 3.58179 7.04973 2.81218 6.73786L0.543527 5.81831C0.384656 5.75376 0.257924 5.62875 0.191198 5.47078C0.124472 5.31281 0.123213 5.13481 0.187699 4.97591ZM0.170288 8.85649C0.234842 8.69762 0.359848 8.57089 0.517819 8.50416C0.675791 8.43744 0.853795 8.43618 1.01269 8.50066L3.28134 9.42021C3.74303 9.60726 4.25898 9.60957 4.72233 9.42667L6.03633 8.90739C6.80871 8.60244 7.6688 8.6063 8.43841 8.91816L9.74898 9.44923C10.2107 9.63628 10.7266 9.63859 11.19 9.45569L12.504 8.9364C13.2763 8.63146 14.1364 8.63532 14.906 8.94718L16.2166 9.47824C16.6783 9.66529 17.1943 9.66761 17.6576 9.48471L19.9344 8.58556C20.0138 8.55223 20.099 8.53509 20.185 8.53512C20.2711 8.53515 20.3563 8.55235 20.4356 8.58573C20.515 8.61911 20.5868 8.66798 20.647 8.72949C20.7072 8.791 20.7546 8.8639 20.7862 8.94393C20.8179 9.02396 20.8333 9.10951 20.8314 9.19555C20.8296 9.2816 20.8107 9.36642 20.7756 9.44504C20.7406 9.52366 20.6903 9.5945 20.6275 9.65341C20.5648 9.71232 20.4909 9.75811 20.4102 9.78811L18.1321 10.6873C17.3597 10.9922 16.4997 10.9883 15.73 10.6765L14.4208 10.1454C13.9591 9.95837 13.4431 9.95606 12.9798 10.139L11.6645 10.6582C10.8921 10.9632 10.032 10.9593 9.26241 10.6475L7.95312 10.1164C7.49143 9.92935 6.97549 9.92704 6.51213 10.1099L5.19685 10.6292C4.42447 10.9342 3.56438 10.9303 2.79477 10.6184L0.526117 9.6989C0.367245 9.63434 0.240514 9.50934 0.173787 9.35137C0.107061 9.19339 0.105802 9.01539 0.170288 8.85649ZM0.152877 12.7371C0.217432 12.5782 0.342437 12.4515 0.500409 12.3847C0.65838 12.318 0.836385 12.3168 0.995284 12.3812L3.26393 13.3008C3.72562 13.4878 4.24157 13.4902 4.70492 13.3073L6.01892 12.788C6.7913 12.483 7.65139 12.4869 8.421 12.7987L9.73157 13.3298C10.1933 13.5169 10.7092 13.5192 11.1726 13.3363L12.4866 12.817C13.2589 12.512 14.119 12.5159 14.8886 12.8278L16.1992 13.3588C16.6609 13.5459 17.1769 13.5482 17.6402 13.3653L19.917 12.4661C19.9964 12.4328 20.0816 12.4157 20.1676 12.4157C20.2537 12.4157 20.3389 12.4329 20.4182 12.4663C20.4976 12.4997 20.5694 12.5486 20.6296 12.6101C20.6898 12.6716 20.7372 12.7445 20.7688 12.8245C20.8005 12.9045 20.8159 12.9901 20.814 13.0761C20.8122 13.1622 20.7932 13.247 20.7582 13.3256C20.7232 13.4042 20.6729 13.4751 20.6101 13.534C20.5474 13.5929 20.4735 13.6387 20.3928 13.6687L18.1147 14.5678C17.3423 14.8728 16.4822 14.8689 15.7126 14.5571L14.4034 14.026C13.9417 13.839 13.4257 13.8366 12.9624 14.0195L11.6471 14.5388C10.8747 14.8438 10.0146 14.8399 9.245 14.528L7.93571 13.997C7.47402 13.8099 6.95807 13.8076 6.49472 13.9905L5.17944 14.5098C4.40706 14.8148 3.54697 14.8109 2.77735 14.499L0.508706 13.5795C0.349835 13.5149 0.223103 13.3899 0.156377 13.2319C0.0896506 13.074 0.0883918 12.896 0.152877 12.7371ZM0.135467 16.6177C0.200021 16.4588 0.325027 16.3321 0.482998 16.2653C0.64097 16.1986 0.818974 16.1973 0.977873 16.2618L3.24652 17.1814C3.70821 17.3684 4.22416 17.3707 4.68751 17.1878L6.00151 16.6686C6.77389 16.3636 7.63397 16.3675 8.40359 16.6793L9.71416 17.2104C10.1759 17.3974 10.6918 17.3998 11.1552 17.2169L12.4691 16.6976C13.2415 16.3926 14.1016 16.3965 14.8712 16.7083L16.1818 17.2394C16.6435 17.4265 17.1594 17.4288 17.6228 17.2459L19.8996 16.3467C19.979 16.3134 20.0642 16.2963 20.1502 16.2963C20.2363 16.2963 20.3215 16.3135 20.4008 16.3469C20.4802 16.3803 20.552 16.4291 20.6122 16.4907C20.6724 16.5522 20.7197 16.6251 20.7514 16.7051C20.7831 16.7851 20.7984 16.8707 20.7966 16.9567C20.7948 17.0428 20.7758 17.1276 20.7408 17.2062C20.7058 17.2848 20.6554 17.3557 20.5927 17.4146C20.53 17.4735 20.4561 17.5193 20.3754 17.5493L18.0973 18.4484C17.3249 18.7534 16.4648 18.7495 15.6952 18.4376L14.3859 17.9066C13.9243 17.7195 13.4083 17.7172 12.945 17.9001L11.6297 18.4194C10.8573 18.7244 9.9972 18.7205 9.22758 18.4086L7.9183 17.8776C7.45661 17.6905 6.94066 17.6882 6.47731 17.8711L5.16203 18.3904C4.38965 18.6953 3.52956 18.6915 2.75994 18.3796L0.491295 17.4601C0.332424 17.3955 0.205693 17.2705 0.138966 17.1125C0.07224 16.9546 0.0709813 16.7766 0.135467 16.6177Z" fill="#6A778B"/>
</g>
<defs>
<clipPath id="clip0_17_54">
<rect width="20.6967" height="20.6967" fill="white" transform="translate(0.16037 0.68895) rotate(0.25706)"/>
</clipPath>
</defs>
</svg>
